# xmcd
#
# Track frame offsets: 
#        150
#        21705
#        42855
#        59462
#        90812
#        122300
#        138812
#        159675
#        191162
#        219417
#
# Disc length: 3144 seconds
#
# Revision: 6
# Processed by: cddbd v1.5.2PL0 Copyright (c) Steve Scherf et al.
# Submitted via: ExactAudioCopy v0.99pb5
#
DISCID=830c460a
DTITLE=Various Artist - An Antonio Carlos Jobim Songbook
DYEAR=1997
DGENRE=Jazz
TTITLE0=Rosemary Clooney - Meditation
TTITLE1=Laurindo Almeida - Medley (Corcovado - The Girl from Ipanema -
TTITLE1=Desafinado)
TTITLE2=Karrin Allyson - One Note Samba
TTITLE3=Scott Hamilton Quintet - How Insensitive
TTITLE4=Ali Ryerson - Zingaro
TTITLE5=Tania Maria - Triste
TTITLE6=The Great Guitars - Favela
TTITLE7=Manfredo Fest - Passarim
TTITLE8=JoAnne Brackeen - Aguas De Marco (Waters of March)
TTITLE9=Carlos Barbosa Lima - Amparo
EXTD=YEAR: 1997
EXTT0=
EXTT1=
EXTT2=
EXTT3=
EXTT4=
EXTT5=
EXTT6=
EXTT7=
EXTT8=
EXTT9=
PLAYORDER=
